<?xml version="1.0" encoding="UTF-8" standalone="no"?>
<svg width="30px" height="26px" viewBox="0 0 30 26" version="1.1" xmlns="http://www.w3.org/2000/svg" xmlns:xlink="http://www.w3.org/1999/xlink">
    <!-- Generator: Sketch 39.1 (31720) - http://www.bohemiancoding.com/sketch -->
    <title>deliverytruck</title>
    <desc>Created with Sketch.</desc>
    <defs></defs>
    <g id="Sneaker-District" stroke="none" stroke-width="1" fill="none" fill-rule="evenodd">
        <g id="4.1-Checkout" transform="translate(-678.000000, -489.000000)" fill="#F8BD32">
            <g id="Group-8" transform="translate(320.000000, 435.000000)">
                <g id="Group-6-Copy-9" transform="translate(207.000000, 36.000000)">
                    <g id="Group-13" transform="translate(151.000000, 14.000000)">
                        <path d="M9.00003165,21.9062145 C11.7500413,21.9062145 14.1875499,24.2499727 14.1875499,26.9999824 L17.7813125,26.9999824 C17.7813125,24.2499727 20.2188211,21.9062145 23.0000809,21.9062145 C25.7500906,21.9062145 28.1875991,24.2499727 28.1875991,26.9999824 L28.5001002,26.9999824 C29.3126031,26.9999824 30.0001055,26.3437301 30.0001055,25.4999771 L30.0001055,19.2499552 C30.0001055,18.7812035 29.7813547,18.343702 29.4063534,18.062451 L27.000095,15.9999437 L27.000095,10.4999244 C27.000095,9.68742153 26.3125925,8.99991912 25.5000897,8.99991912 L22.0000774,8.99991912 L22.0000774,5.49990681 C22.0000774,4.68740395 21.3125749,3.99990153 20.5000721,3.99990153 L3.50001231,3.99990153 C2.65625934,3.99990153 2.00000703,4.68740395 2.00000703,5.49990681 L2.00000703,6.62491076 L0.968753407,6.71866109 C0.406251429,6.7499112 0,7.21866285 0,7.78116483 C0,8.09366593 0.250000879,8.87491868 1.03125363,8.9374189 L11.8437917,9.9061723 C11.9062919,10.1249231 11.9062919,10.3124237 11.7812914,10.5624246 C11.5000404,11.1561767 10.7187877,11.6561785 10.0625354,11.7186787 L1.96875692,12.3124308 L1.96875692,12.3436809 C1.40625495,12.374931 1.00000352,12.8436826 1.00000352,13.4061846 C1.00000352,13.8436862 1.21875429,14.4686883 2.03125714,14.5936888 L11.1562892,15.4061916 C11.1562892,15.5311921 11.1562892,15.6561925 11.093789,15.8124431 L11.093789,15.8436932 C10.8750382,16.4686954 10.1562857,17.0311974 9.50003341,17.0936976 L2.00000703,17.6874497 L2.00000703,25.4999771 C2.00000703,26.3437301 2.68750945,26.9999824 3.50001231,26.9999824 L3.7812633,26.9999824 C3.7812633,24.2499727 6.21877187,21.9062145 9.00003165,21.9062145 L9.00003165,21.9062145 Z M23.0000809,23.9999719 C21.3438251,23.9999719 20.0000703,25.3437266 20.0000703,26.9999824 C20.0000703,28.6562382 21.3438251,29.999993 23.0000809,29.999993 C24.6563367,29.999993 26.0000914,28.6562382 26.0000914,26.9999824 C26.0000914,25.3437266 24.6563367,23.9999719 23.0000809,23.9999719 L23.0000809,23.9999719 Z M9.00003165,23.9999719 C7.34377583,23.9999719 6.0000211,25.3437266 6.0000211,26.9999824 C6.0000211,28.6562382 7.34377583,29.999993 9.00003165,29.999993 C10.6562875,29.999993 12.0000422,28.6562382 12.0000422,26.9999824 C12.0000422,25.3437266 10.6562875,23.9999719 9.00003165,23.9999719 L9.00003165,23.9999719 Z" id="deliverytruck"></path>
                    </g>
                </g>
            </g>
        </g>
    </g>
</svg>