<?xml version="1.0" encoding="UTF-8" standalone="no"?>
<svg width="47px" height="24px" viewBox="0 0 47 24" version="1.1" xmlns="http://www.w3.org/2000/svg" xmlns:xlink="http://www.w3.org/1999/xlink">
    <!-- Generator: Sketch 39.1 (31720) - http://www.bohemiancoding.com/sketch -->
    <title>Group 3</title>
    <desc>Created with Sketch.</desc>
    <defs></defs>
    <g id="Sneaker-District" stroke="none" stroke-width="1" fill="none" fill-rule="evenodd">
        <g id="4.1-Checkout" transform="translate(-454.000000, -491.000000)" fill="#F8BD32">
            <g id="Group-8" transform="translate(320.000000, 435.000000)">
                <g id="Group-6-Copy-7" transform="translate(0.000000, 36.000000)">
                    <g id="Group-13" transform="translate(134.000000, 20.000000)">
                        <g id="Group-3">
                            <path d="M37.0000703,8.9999367 L37.0000703,2.9999156 L40.6563332,2.9999156 C41.2500853,3.90616879 42.3438391,5.90617582 43.156342,8.9999367 L37.0000703,8.9999367 Z M27.0312853,15.8749609 C29.4375437,15.8749609 31.4688009,17.7187174 31.9375525,19.9999754 L35.1250637,19.9999754 C35.5938154,17.7187174 37.5938224,15.8749609 40.031331,15.8749609 C42.4375895,15.8749609 44.4688466,17.7187174 44.9375982,19.9999754 L45.3438497,19.9999754 C46.1251024,19.9999754 46.7813547,19.4062233 46.843855,18.6562207 C47.9376088,7.46868131 42.7500906,0.781157797 42.5313398,0.531156918 C42.2500888,0.187405709 41.8438374,-9.49501991e-05 41.4063358,-9.49501991e-05 L21.5000158,-9.49501991e-05 C20.6562629,-9.49501991e-05 20.0000106,0.687407468 20.0000106,1.49991032 L20.0000106,2.9999156 L18.125004,3.12491604 C17.5937521,3.15616615 17.1875007,3.6249178 17.1562505,4.15616967 L17.1562505,4.28117011 C17.1875007,4.84367208 17.6562523,5.34367384 18.1875042,5.37492395 L29.0312923,6.34367736 L29.0312923,6.37492747 C28.7500413,6.93742945 27.9687886,7.46868131 27.2812862,7.53118153 L20.0000106,8.0624334 L19.000007,8.12493362 C18.6250057,8.15618373 18.3125046,8.40618461 18.1562541,8.71868571 C18.0937538,8.87493626 18.0312536,9.03118681 18.0312536,9.21868747 L18.0312536,9.28118769 C18.0625037,9.84368967 18.5312554,10.3436914 19.0625073,10.3749415 L27.8437881,11.1561943 C27.5937873,11.7186963 26.9687851,12.218698 26.3437829,12.2499481 L20.0000106,12.7499499 L20.0000106,18.4999701 C20.0000106,19.3437231 20.6562629,19.9999754 21.5000158,19.9999754 L22.125018,19.9999754 C22.5937697,17.7187174 24.5937767,15.8749609 27.0312853,15.8749609 L27.0312853,15.8749609 Z M40.0000809,23.9999894 C41.6563367,23.9999894 43.0000914,22.6562347 43.0000914,20.9999789 C43.0000914,19.3437231 41.6563367,17.9999683 40.0000809,17.9999683 C38.3438251,17.9999683 37.0000703,19.3437231 37.0000703,20.9999789 C37.0000703,22.6562347 38.3438251,23.9999894 40.0000809,23.9999894 L40.0000809,23.9999894 Z M27.0000352,23.9999894 C28.656291,23.9999894 30.0000457,22.6562347 30.0000457,20.9999789 C30.0000457,19.3437231 28.656291,17.9999683 27.0000352,17.9999683 C25.3437793,17.9999683 24.0000246,19.3437231 24.0000246,20.9999789 C24.0000246,22.6562347 25.3437793,23.9999894 27.0000352,23.9999894 L27.0000352,23.9999894 Z" id="deliveryvan"></path>
                            <path d="M13.0156708,8.29684088 C10.8594132,4.5780778 6.03127121,3.26557318 6.03127121,3.26557318 C6.03127121,3.26557318 7.45315121,6.85933582 3.71876308,9.31246945 C1.98438198,10.4374734 1.01562857,11.8124782 1.03125363,13.3437336 C1.03125363,13.8906105 1.15625407,14.4687376 1.43750506,15.0624897 C2.26563297,16.859371 4.0937644,17.5312484 6.01564615,17.7343741 C6.0000211,17.718749 5.98439605,17.718749 5.98439605,17.718749 C4.46876572,16.9218712 2.79688484,14.015611 6.20314681,11.2343512 C6.06252132,11.6718527 5.96877099,12.4374804 6.03127121,12.890607 C6.18752176,13.8437354 6.64064835,14.2499868 7.15627517,14.2499868 C7.62502681,14.2499868 8.15627868,13.8906105 8.51565495,13.3281086 C9.00003165,12.5624809 9.00003165,11.2187262 8.95315649,10.3437231 C8.93753143,9.9530967 8.78128088,8.76559253 8.71878066,8.71871736 C8.71878066,8.71871736 10.796913,10.031222 11.0312888,12.2187297 C11.2344145,14.2656119 10.4844119,16.5937451 8.01565319,17.7343741 C11.1406642,17.4531231 13.2656717,15.2656154 13.7656734,13.3593587 C14.2188,11.7031029 13.8750488,9.7812211 13.0156708,8.29684088 L13.0156708,8.29684088 Z" id="flame" transform="translate(8.015534, 10.632787) scale(1, -1) rotate(-90.000000) translate(-8.015534, -10.632787) "></path>
                        </g>
                    </g>
                </g>
            </g>
        </g>
    </g>
</svg>