<?xml version="1.0" encoding="UTF-8" standalone="no"?>
<svg width="22px" height="30px" viewBox="0 0 22 30" version="1.1" xmlns="http://www.w3.org/2000/svg" xmlns:xlink="http://www.w3.org/1999/xlink">
    <!-- Generator: Sketch 39.1 (31720) - http://www.bohemiancoding.com/sketch -->
    <title>location</title>
    <desc>Created with Sketch.</desc>
    <defs></defs>
    <g id="Sneaker-District" stroke="none" stroke-width="1" fill="none" fill-rule="evenodd">
        <g id="4.1-Checkout" transform="translate(-889.000000, -487.000000)" fill="#F8BD32">
            <g id="Group-8" transform="translate(320.000000, 435.000000)">
                <g id="Group-6-Copy-10" transform="translate(414.000000, 36.000000)">
                    <g id="Group-13" transform="translate(155.000000, 16.000000)">
                        <path d="M11.0000528,-0.000105500221 C4.93753143,-0.000105500221 1.40666962e-05,5.18741274 1.40666962e-05,11.4999349 C1.40666962e-05,20.1249653 9.28129671,29.0937468 9.28129671,29.0937468 C10.5313011,30.2500009 11.2813037,30.3437512 12.6250585,29.0937468 C12.6250585,29.0937468 22.0000914,20.1249653 22.0000914,11.4999349 C22.0000914,5.18741274 17.0625741,-0.000105500221 11.0000528,-0.000105500221 L11.0000528,-0.000105500221 Z M11.0000528,16.1874514 C8.12504264,16.1874514 5.81253451,13.8749433 5.81253451,10.9999332 C5.81253451,8.12492307 8.12504264,5.78116483 11.0000528,5.78116483 C13.8750629,5.78116483 16.2188211,8.12492307 16.2188211,10.9999332 C16.2188211,13.8749433 13.8750629,16.1874514 11.0000528,16.1874514 L11.0000528,16.1874514 Z" id="location"></path>
                    </g>
                </g>
            </g>
        </g>
    </g>
</svg>